<svg width="20" height="20" viewBox="0 0 20 20" fill="none" xmlns="http://www.w3.org/2000/svg">
<path d="M12.2028 10.0011L19.6805 2.52301C19.8862 2.31716 19.9997 2.04252 20 1.74968C20 1.45667 19.8865 1.18171 19.6805 0.97618L19.0252 0.321059C18.8192 0.114717 18.5446 0.00170898 18.2514 0.00170898C17.9587 0.00170898 17.6841 0.114717 17.478 0.321059L10.0003 7.79862L2.52228 0.321059C2.31659 0.114717 2.04179 0.00170898 1.74878 0.00170898C1.4561 0.00170898 1.1813 0.114717 0.97561 0.321059L0.32 0.97618C-0.106667 1.40285 -0.106667 2.09683 0.32 2.52301L7.79789 10.0011L0.32 17.4788C0.114146 17.685 0.000813008 17.9596 0.000813008 18.2524C0.000813008 18.5453 0.114146 18.8199 0.32 19.0259L0.975447 19.6811C1.18114 19.8872 1.4561 20.0004 1.74862 20.0004C2.04163 20.0004 2.31642 19.8872 2.52211 19.6811L10.0002 12.2033L17.4779 19.6811C17.6839 19.8872 17.9585 20.0004 18.2512 20.0004C18.5441 20.0004 18.819 19.8872 19.025 19.6811L19.6803 19.0259C19.886 18.8201 19.9995 18.5453 19.9995 18.2524C19.9995 17.9596 19.886 17.685 19.6803 17.4789L12.2028 10.0011Z" fill="#FFBE2E"/>
</svg>
