<svg width="280" height="118" viewBox="0 0 280 118" fill="none" xmlns="http://www.w3.org/2000/svg">
<path d="M98.2332 23.002C97.5567 21.1922 97.1287 19.1429 96.9672 17.0831C96.9134 16.3964 95.5808 16.4492 95.6346 17.1358C95.8499 19.8823 94.6815 25.4385 98.0232 27.1428C98.5921 27.5794 99.3378 26.8611 99.3019 26.4034C99.2122 25.259 98.5895 24.1358 98.2332 23.002Z" fill="black"></path>
<path d="M114.273 30.9699C109.905 31.614 106.106 32.4716 101.828 30.7525C101.259 30.539 101.02 31.0203 101.59 31.2338C105.923 33.6586 110.697 34.6503 115.21 32.3488C116.275 31.8349 115.081 30.7021 114.273 30.9699Z" fill="black"></path>
<path d="M134.814 17.908C130.017 19.7157 125.677 23.8212 122.377 27.1915C121.885 27.9054 122.761 28.5659 123.545 28.0723C125.606 26.3712 127.94 24.6594 130.293 23.1784C132.117 21.9496 134.233 20.941 135.764 19.492C136.512 18.5367 135.617 17.6452 134.814 17.908Z" fill="black"></path>
<path d="M158.895 8.33293C153.922 8.29313 149.098 10.1304 144.805 11.7113C143.998 11.9784 144.347 12.9061 145.173 12.8737C149.759 11.5165 154.401 10.8632 159.062 10.4446C160.419 10.1559 160.271 8.27882 158.895 8.33293Z" fill="black"></path>
<path d="M177.92 15.0277C176.446 13.7001 174.427 12.3938 172.7 11.307C171.263 10.4397 169.737 11.884 170.919 12.9921C172.375 14.0895 173.848 15.417 175.322 16.7446C176.796 18.0721 178.324 20.09 180.325 21.1662C181.18 21.5946 182.215 20.8618 181.869 19.952C181.722 18.1111 179.666 16.3446 177.92 15.0277Z" fill="black"></path>
<path d="M183.873 27.1104C183.801 26.1947 181.93 26.2686 182.002 27.1843C181.915 29.4841 181.542 31.5656 181.187 33.876C180.814 35.9575 179.64 38.0706 179.82 40.3599C179.91 41.5045 181.817 41.8884 182.262 40.7227C184.362 36.7359 184.464 31.2205 183.873 27.1104Z" fill="black"></path>
<path d="M189.872 56.2476C187.899 55.4038 186.216 54.7786 184.749 53.454C183.246 51.6702 182.484 48.9363 182.319 46.87C182.264 46.1808 180.907 46.2338 180.962 46.9229C180.766 51.3064 182.455 58.8401 189.494 58.3355C190.561 58.0636 190.995 56.6648 189.872 56.2476Z" fill="black"></path>
<path d="M197.806 60.8047C200.593 61.874 203.649 62.3077 206.526 63.1649C210.098 64.4679 213.138 66.3298 215.296 68.8835C215.729 69.2511 216.26 68.6929 216.088 68.4033C212.035 63.3736 205.709 58.1444 197.92 58.4506C196.343 58.6971 196.498 60.415 197.806 60.8047Z" fill="black"></path>
<path d="M237.238 81.8477C235.444 80.7382 233.265 80.0198 231.108 78.7906C229.315 77.6811 227.906 76.1801 226.747 74.5893C225.929 73.6284 224.183 74.2617 224.751 75.3131C226.548 79.1872 230.66 83.4789 236.038 84.0429C237.74 84.4317 238.306 82.7176 237.238 81.8477Z" fill="black"></path>
<path d="M259.447 91.4117C258.513 90.0518 256.243 89.2094 254.541 88.5776C252.564 87.9565 250.349 87.8105 248.154 87.8961C246.781 87.9497 246.91 89.5733 248.283 89.5198C250.204 89.4449 251.888 89.845 253.591 90.4768C255.019 91.1193 256.209 92.2365 257.637 92.8786C258.79 93.5314 260.07 92.3183 259.447 91.4117Z" fill="black"></path>
<path d="M279.297 101.326C275.065 96.1879 272.138 90.307 268.432 84.9176C266.597 82.4528 262.425 84.921 263.987 87.3965C266.804 91.8978 269.367 96.6404 272.981 100.881C270.55 101.206 268.118 101.531 265.414 101.867C264.344 102.139 262.438 102.214 261.695 103.165L261.442 103.405C261.442 103.405 261.169 103.416 261.188 103.646C260.68 104.127 261.298 105.025 261.842 105.004C262.133 105.223 262.405 105.212 262.949 105.191C264.329 105.368 265.671 105.085 267.305 105.021C270.825 104.654 274.073 104.296 277.63 104.389C279.282 104.555 280.224 102.674 279.297 101.326Z" fill="black"></path>
<path d="M92.6383 14.7866C90.7345 13.9135 88.5757 13.1233 86.5216 12.5476C84.4675 11.9719 81.7985 11.3473 80.013 11.9272C78.9927 12.2585 79.0062 13.4969 79.9809 13.6775C81.7799 14.336 83.9253 13.8879 85.8746 14.249C88.0791 14.5273 89.8781 15.1859 92.0369 15.9761C93.0116 16.1567 93.3579 15.05 92.6383 14.7866Z" fill="black"></path>
<path d="M61.3006 23.1973C57.1443 24.4818 53.5917 25.8893 49.0297 24.8534C48.4259 24.7304 48.2925 25.2361 48.8962 25.3591C53.6604 27.0755 58.5567 27.327 62.5095 24.4026C63.4475 23.7412 62.0378 22.8147 61.3006 23.1973Z" fill="black"></path>
<path d="M40.289 22.0864C38.1419 21.4376 35.9146 20.4736 33.8379 19.3223C33.1457 18.9386 32.3929 19.8749 33.0851 20.2586C35.854 21.7936 40.4884 25.9872 44.1412 24.7635C44.9038 24.6448 44.6633 23.6992 44.2018 23.4434C43.0481 22.8038 41.5932 22.5388 40.289 22.0864Z" fill="black"></path>
<path d="M66.504 20.9668C68.9158 17.8837 70.7575 14.9984 75.1417 13.5892C75.712 13.3913 75.4596 12.9173 74.8893 13.1152C69.8601 14.0745 65.7656 16.2816 64.6811 20.5887C64.4007 21.5845 66.1861 21.6387 66.504 20.9668Z" fill="black"></path>
<path d="M26.7395 17.8176C24.8357 16.9446 22.6769 16.1544 20.6228 15.5787C18.5687 15.003 15.8997 14.3785 14.1142 14.9583C13.0939 15.2896 13.1074 16.5279 14.0821 16.7085C15.8811 17.367 18.0264 16.9189 19.9758 17.28C22.1802 17.5583 23.9793 18.2168 26.1381 19.007C27.1128 19.1876 27.4591 18.081 26.7395 17.8176Z" fill="black"></path>
<path d="M7.87361 15.8708C5.99364 16.4089 3.76412 16.1739 2.09089 16.9887C0.816265 17.4208 0.432573 18.7398 1.32351 19.6267C2.2784 20.2939 3.75978 20.1385 4.90651 20.1461C5.78255 20.0969 6.18114 19.7141 6.37299 19.0546C7.31297 18.7855 8.25296 18.5164 8.9862 17.9706C10.3248 17.3187 9.48288 15.2757 7.87361 15.8708Z" fill="black"></path>
</svg>
