<svg width="120" height="63" viewBox="0 0 120 63" fill="none" xmlns="http://www.w3.org/2000/svg">
<path d="M118.276 17.5536L105.023 3.29137C103.309 1.43637 99.8508 0.250384 97.3716 0.645712L5.42711 14.8471C2.9173 15.2425 0.897217 17.6144 0.897217 20.108V58.911C0.897217 61.4046 2.94791 63.1684 5.42711 62.7731L97.3716 48.5717C99.8814 48.1763 103.126 46.1997 104.595 44.1622L118.736 24.6087C120.174 22.5712 119.99 19.4086 118.276 17.5536ZM111.084 24.7303C109.615 25.004 108.39 24.0005 108.39 22.48C108.39 20.9595 109.584 19.4694 111.084 19.1957C112.553 18.922 113.777 19.9256 113.777 21.4461C113.747 22.9666 112.553 24.4262 111.084 24.7303Z" fill="#FFBE2E"></path>
<path d="M19.9912 29.4933L22.8277 45.569L20.2279 46.0277L19.9641 44.5328C19.6132 45.1607 19.1298 45.6704 18.5138 46.0621C17.9123 46.4512 17.2143 46.7158 16.4199 46.856C15.3077 47.0522 14.2606 46.9838 13.2784 46.6507C12.3107 46.3151 11.4951 45.7442 10.8316 44.9379C10.1655 44.1171 9.72924 43.1218 9.5228 41.9519C9.31637 40.7819 9.38691 39.7046 9.73443 38.7199C10.0819 37.7352 10.6529 36.9196 11.4473 36.2731C12.2562 35.624 13.2167 35.2013 14.3288 35.0051C15.0943 34.87 15.8178 34.8764 16.4992 35.0242C17.1806 35.1721 17.791 35.4665 18.3305 35.9074L17.283 29.9711L19.9912 29.4933ZM16.3358 44.4805C16.9858 44.3658 17.5453 44.1181 18.0143 43.7375C18.4807 43.3425 18.8172 42.8437 19.0236 42.2414C19.2301 41.639 19.2696 40.9767 19.1422 40.2545C19.0148 39.5324 18.751 38.9236 18.3508 38.4283C17.9507 37.9329 17.4651 37.5867 16.8942 37.3896C16.3207 37.178 15.709 37.1296 15.059 37.2442C14.4091 37.3589 13.8508 37.6138 13.3844 38.0089C12.9154 38.3895 12.5777 38.881 12.3712 39.4834C12.1647 40.0857 12.1252 40.748 12.2526 41.4702C12.3801 42.1924 12.6439 42.8011 13.044 43.2965C13.4442 43.7918 13.931 44.1452 14.5045 44.3568C15.0754 44.5539 15.6859 44.5952 16.3358 44.4805ZM24.3291 33.3746L27.0373 32.8967L29.0787 44.466L26.3705 44.9438L24.3291 33.3746ZM25.3576 31.2272C24.8666 31.3138 24.4282 31.2348 24.0424 30.9901C23.6542 30.731 23.4193 30.3703 23.3377 29.9081C23.2562 29.4459 23.3547 29.0338 23.6334 28.6719C23.9095 28.2955 24.2931 28.064 24.7842 27.9774C25.2753 27.8907 25.7137 27.9698 26.0994 28.2145C26.4826 28.4447 26.7137 28.7837 26.7927 29.2315C26.8768 29.7081 26.7821 30.1418 26.5085 30.5326C26.2468 30.9065 25.8632 31.138 25.3576 31.2272ZM36.2347 43.3597C35.2959 43.5254 34.357 43.5644 33.4182 43.4769C32.4794 43.3894 31.7096 43.205 31.109 42.9237L31.7857 40.682C32.3669 40.9369 33.0376 41.109 33.798 41.1982C34.5703 41.2705 35.3104 41.2441 36.0181 41.1193C37.6358 40.8338 38.3694 40.265 38.2191 39.4129C38.1477 39.0084 37.8886 38.7637 37.4417 38.6788C37.0092 38.5912 36.3253 38.5556 35.3898 38.5717C34.4111 38.5954 33.6018 38.567 32.9621 38.4862C32.3368 38.403 31.7594 38.1697 31.2301 37.7865C30.7127 37.3864 30.3801 36.7674 30.2323 35.9297C30.0386 34.832 30.3394 33.8779 31.1347 33.0673C31.9418 32.2398 33.1253 31.6885 34.6852 31.4132C35.4796 31.273 36.2906 31.2268 37.1181 31.2743C37.9431 31.3075 38.6351 31.4311 39.1942 31.6453L38.5174 33.887C37.4333 33.4825 36.2774 33.3886 35.0497 33.6052C34.2553 33.7454 33.6703 33.9752 33.2948 34.2947C32.9311 34.5971 32.7837 34.9433 32.8525 35.3333C32.929 35.7666 33.2004 36.0389 33.6669 36.1502C34.1452 36.2445 34.8606 36.2896 35.813 36.2854C36.7629 36.2667 37.5505 36.299 38.1758 36.3823C38.8011 36.4655 39.3627 36.6941 39.8606 37.0679C40.3729 37.4392 40.7017 38.0365 40.8469 38.8598C41.0381 39.9431 40.7216 40.8925 39.8974 41.7081C39.0733 42.5237 37.8524 43.0743 36.2347 43.3597ZM49.1179 41.0865C47.9191 41.298 46.7985 41.2351 45.756 40.8978C44.7135 40.5605 43.8461 39.9912 43.1537 39.19C42.4587 38.3744 42.0105 37.396 41.8092 36.255C41.6079 35.1139 41.6954 34.0485 42.0718 33.0587C42.4482 32.0689 43.0612 31.2384 43.9109 30.5673C44.7749 29.8935 45.8136 29.4496 47.0269 29.2356C48.1679 29.0342 49.2053 29.0895 50.139 29.4013C51.0872 29.7106 51.8544 30.2603 52.4406 31.0505L50.5748 32.6307C50.1483 32.1549 49.6593 31.8316 49.1079 31.6608C48.5684 31.4731 48.0026 31.4314 47.4104 31.5359C46.3994 31.7143 45.6203 32.1943 45.0731 32.9759C44.5234 33.7431 44.3454 34.6756 44.539 35.7733C44.7327 36.871 45.2132 37.6947 45.9804 38.2444C46.7595 38.7772 47.6617 38.9531 48.6872 38.7721C49.2794 38.6676 49.7981 38.4421 50.2433 38.0954C50.7004 37.7318 51.0479 37.2535 51.2858 36.6604L53.5798 37.5067C53.2849 38.4523 52.7463 39.2399 51.9638 39.8695C51.1931 40.482 50.2445 40.8877 49.1179 41.0865ZM61.4291 38.9142C60.2592 39.1206 59.1602 39.0539 58.1322 38.714C57.1041 38.3742 56.2439 37.8036 55.5515 37.0024C54.871 36.1842 54.43 35.2046 54.2287 34.0636C54.0274 32.9225 54.1077 31.8584 54.4696 30.8711C54.846 29.8814 55.459 29.0509 56.3087 28.3797C57.1583 27.7085 58.1681 27.2697 59.338 27.0633C60.5224 26.8543 61.6286 26.9197 62.6566 27.2596C63.6846 27.5995 64.5376 28.1713 65.2156 28.975C65.908 29.7762 66.3549 30.7474 66.5563 31.8884C66.7576 33.0294 66.6713 34.1021 66.2975 35.1063C65.9355 36.0936 65.3297 36.9228 64.4801 37.594C63.6305 38.2651 62.6135 38.7052 61.4291 38.9142ZM61.02 36.596C62.0167 36.4202 62.7813 35.9427 63.314 35.1636C63.8468 34.3845 64.0176 33.4533 63.8264 32.3701C63.6353 31.2868 63.1561 30.4703 62.3889 29.9206C61.6217 29.3709 60.7398 29.1839 59.7432 29.3598C58.7466 29.5356 57.982 30.0131 57.4492 30.7922C56.9309 31.5687 56.7674 32.4986 56.9585 33.5819C57.1497 34.6652 57.6216 35.4829 58.3743 36.0352C59.1415 36.5849 60.0234 36.7719 61.02 36.596ZM79.3262 23.6704L81.3676 35.2397L78.7894 35.6946L78.5295 34.2214C78.1879 34.8178 77.7176 35.3178 77.1187 35.7213C76.5171 36.1105 75.8408 36.3713 75.0897 36.5038C73.5443 36.7765 72.2486 36.5658 71.2028 35.8716C70.1688 35.1604 69.5027 33.9599 69.2045 32.27L68.0386 25.6621L70.7467 25.1843L71.8477 31.4239C72.0312 32.4638 72.3999 33.203 72.9539 33.6414C73.5197 34.0628 74.2359 34.1971 75.1025 34.0442C76.0703 33.8734 76.7835 33.4422 77.2423 32.7507C77.713 32.0421 77.849 31.1245 77.6502 29.9979L76.6181 24.1483L79.3262 23.6704ZM89.4137 21.7565C90.8725 21.4991 92.1176 21.7187 93.149 22.4154C94.1805 23.1121 94.844 24.2982 95.1396 25.9737L96.3094 32.6032L93.6012 33.0811L92.4926 26.7982C92.3142 25.7871 91.9421 25.0709 91.3763 24.6495C90.8079 24.2136 90.0832 24.0734 89.2021 24.2288C88.2055 24.4047 87.4718 24.8469 87.0011 25.5555C86.5279 26.2496 86.3907 27.16 86.5894 28.2866L87.6216 34.1362L84.9134 34.614L82.872 23.0448L85.4502 22.5899L85.714 24.0848C86.0675 23.4713 86.5594 22.9675 87.1898 22.5733C87.8202 22.1791 88.5615 21.9068 89.4137 21.7565ZM106.134 30.2219C105.862 30.538 105.506 30.8018 105.067 31.0133C104.642 31.2223 104.177 31.3714 103.671 31.4606C102.4 31.6849 101.36 31.526 100.549 30.9839C99.7385 30.4418 99.2211 29.5353 98.9969 28.2643L97.1657 17.8866L99.8739 17.4087L100.34 20.0519L103.438 19.5052L103.821 21.6718L100.723 22.2184L101.694 27.7214C101.793 28.2847 102.007 28.6938 102.335 28.9487C102.674 29.1866 103.097 29.2609 103.603 29.1717C104.209 29.0647 104.687 28.8166 105.035 28.4275L106.134 30.2219Z" fill="white"></path>
</svg>
