<svg width="10" height="10" viewBox="0 0 10 10" fill="none" xmlns="http://www.w3.org/2000/svg">
<g clip-path="url('#clip0_1_29')">
<path d="M5.27442 7.58631L9.88692 2.96102C10.038 2.80948 10.0377 2.56413 9.88614 2.41284C9.73459 2.26167 9.48911 2.26206 9.33795 2.41362L4.99999 6.7636L0.662038 2.41346C0.510866 2.26192 0.265535 2.26153 0.113974 2.41268C0.0379972 2.48852 8.57047e-06 2.58788 8.56612e-06 2.68723C8.56179e-06 2.78633 0.0377435 2.8853 0.113193 2.961L4.72557 7.58631C4.79819 7.6593 4.89702 7.70026 4.99999 7.70026C5.10295 7.70026 5.20166 7.65919 5.27442 7.58631Z" fill="#3E3B3B"></path>
</g>
<defs>
<clipPath id="clip0_1_29">
<rect width="10" height="10" fill="white" transform="translate(10) rotate(90)"></rect>
</clipPath>
</defs>
</svg>
