<svg width="34" height="33" viewBox="0 0 34 33" fill="none" xmlns="http://www.w3.org/2000/svg">
<g clip-path="url('#clip0_1_1476')">
<path d="M9.20833 31.625H0.708333C0.317333 31.625 0 31.317 0 30.9375C0 30.558 0.317333 30.25 0.708333 30.25H9.20833C9.59933 30.25 9.91667 30.558 9.91667 30.9375C9.91667 31.317 9.59933 31.625 9.20833 31.625Z" fill="#3E3B3B"></path>
<path d="M14.875 31.625H12.0417C11.6507 31.625 11.3334 31.317 11.3334 30.9375C11.3334 30.558 11.6507 30.25 12.0417 30.25H14.875C15.266 30.25 15.5834 30.558 15.5834 30.9375C15.5834 31.317 15.266 31.625 14.875 31.625Z" fill="#3E3B3B"></path>
<path d="M9.20833 33C8.81733 33 8.5 32.692 8.5 32.3125V29.5625C8.5 29.183 8.81733 28.875 9.20833 28.875C9.59933 28.875 9.91667 29.183 9.91667 29.5625V32.3125C9.91667 32.692 9.59933 33 9.20833 33Z" fill="#3E3B3B"></path>
<path d="M3.54167 26.125H0.708333C0.317333 26.125 0 25.817 0 25.4375C0 25.058 0.317333 24.75 0.708333 24.75H3.54167C3.93267 24.75 4.25 25.058 4.25 25.4375C4.25 25.817 3.93267 26.125 3.54167 26.125Z" fill="#3E3B3B"></path>
<path d="M14.875 26.125H6.37496C5.98396 26.125 5.66663 25.817 5.66663 25.4375C5.66663 25.058 5.98396 24.75 6.37496 24.75H14.875C15.266 24.75 15.5833 25.058 15.5833 25.4375C15.5833 25.817 15.266 26.125 14.875 26.125Z" fill="#3E3B3B"></path>
<path d="M3.54171 27.5C3.15071 27.5 2.83337 27.192 2.83337 26.8125V24.0625C2.83337 23.683 3.15071 23.375 3.54171 23.375C3.93271 23.375 4.25004 23.683 4.25004 24.0625V26.8125C4.25004 27.192 3.93271 27.5 3.54171 27.5Z" fill="#3E3B3B"></path>
<path d="M21.9583 31.625H19.125C18.734 31.625 18.4166 31.317 18.4166 30.9375C18.4166 30.558 18.734 30.25 19.125 30.25H21.9583C22.3493 30.25 22.6666 30.558 22.6666 30.9375C22.6666 31.317 22.3493 31.625 21.9583 31.625Z" fill="#3E3B3B"></path>
<path d="M33.2917 31.625H24.7917C24.4007 31.625 24.0834 31.317 24.0834 30.9375C24.0834 30.558 24.4007 30.25 24.7917 30.25H33.2917C33.6827 30.25 34 30.558 34 30.9375C34 31.317 33.6827 31.625 33.2917 31.625Z" fill="#3E3B3B"></path>
<path d="M21.9583 33C21.5673 33 21.25 32.692 21.25 32.3125V29.5625C21.25 29.183 21.5673 28.875 21.9583 28.875C22.3493 28.875 22.6667 29.183 22.6667 29.5625V32.3125C22.6667 32.692 22.3493 33 21.9583 33Z" fill="#3E3B3B"></path>
<path d="M26.2083 26.125H19.125C18.734 26.125 18.4166 25.817 18.4166 25.4375C18.4166 25.058 18.734 24.75 19.125 24.75H26.2083C26.5993 24.75 26.9166 25.058 26.9166 25.4375C26.9166 25.817 26.5993 26.125 26.2083 26.125Z" fill="#3E3B3B"></path>
<path d="M33.2917 26.125H29.0417C28.6507 26.125 28.3334 25.817 28.3334 25.4375C28.3334 25.058 28.6507 24.75 29.0417 24.75H33.2917C33.6827 24.75 34.0001 25.058 34.0001 25.4375C34.0001 25.817 33.6827 26.125 33.2917 26.125Z" fill="#3E3B3B"></path>
<path d="M26.2083 27.5C25.8173 27.5 25.5 27.192 25.5 26.8125V24.0625C25.5 23.683 25.8173 23.375 26.2083 23.375C26.5993 23.375 26.9167 23.683 26.9167 24.0625V26.8125C26.9167 27.192 26.5993 27.5 26.2083 27.5Z" fill="#3E3B3B"></path>
<path d="M17 8.25004C16.9249 8.25004 16.8484 8.23767 16.7761 8.21429L6.15113 4.77679C5.86213 4.68329 5.66663 4.42067 5.66663 4.12504C5.66663 3.82942 5.86213 3.5668 6.15113 3.47329L16.7761 0.0357949C16.922 -0.0109551 17.0793 -0.0109551 17.2238 0.0357949L27.8488 3.47329C28.1378 3.5668 28.3333 3.82942 28.3333 4.12504C28.3333 4.42067 28.1378 4.68329 27.8488 4.77679L17.2238 8.21429C17.1515 8.23767 17.075 8.25004 17 8.25004ZM8.61471 4.12504L17 6.83792L25.3852 4.12504L17 1.41217L8.61471 4.12504Z" fill="#3E3B3B"></path>
<path d="M17 22C16.9249 22 16.8484 21.9876 16.7761 21.9642L6.15113 18.5267C5.86213 18.4332 5.66663 18.1706 5.66663 17.875V4.125C5.66663 3.7455 5.98396 3.4375 6.37496 3.4375C6.76596 3.4375 7.08329 3.7455 7.08329 4.125V17.38L17 20.5879L26.9166 17.38V4.125C26.9166 3.7455 27.234 3.4375 27.625 3.4375C28.016 3.4375 28.3333 3.7455 28.3333 4.125V17.875C28.3333 18.1706 28.1378 18.4332 27.8488 18.5267L17.2238 21.9642C17.1515 21.9876 17.075 22 17 22Z" fill="#3E3B3B"></path>
<path d="M17 22C16.609 22 16.2916 21.692 16.2916 21.3125V7.5625C16.2916 7.183 16.609 6.875 17 6.875C17.391 6.875 17.7083 7.183 17.7083 7.5625V21.3125C17.7083 21.692 17.391 22 17 22Z" fill="#3E3B3B"></path>
</g>
<defs>
<clipPath id="clip0_1_1476">
<rect width="34" height="33" fill="white"></rect>
</clipPath>
</defs>
</svg>
