<svg width="20" height="20" fill="none" xmlns="http://www.w3.org/2000/svg"><path d="M12.203 10 19.68 2.52c.206-.206.32-.48.32-.773 0-.293-.113-.568-.32-.774L19.025.32A1.085 1.085 0 0 0 18.251 0c-.292 0-.567.113-.773.32L10 7.796 2.522.319A1.084 1.084 0 0 0 1.75 0C1.456 0 1.18.113.976.32L.32.973a1.095 1.095 0 0 0 0 1.547L7.798 10 .32 17.477c-.206.206-.32.48-.32.774 0 .293.114.567.32.773l.655.655c.206.207.481.32.774.32.293 0 .567-.113.773-.32L10 12.202l7.478 7.477c.206.207.48.32.773.32.293 0 .568-.113.774-.32l.655-.655c.206-.206.32-.48.32-.773 0-.293-.114-.568-.32-.774L12.203 10Z" fill="#3E3B3B"/></svg>