<svg width="35" height="35" fill="none" xmlns="http://www.w3.org/2000/svg"><g clip-path="url('#clip0_1_52')"><path d="m34.786 33.755-10.65-10.65c2.213-2.455 3.572-5.693 3.572-9.25C27.708 6.214 21.493 0 13.854 0 6.215 0 0 6.215 0 13.854c0 7.64 6.215 13.854 13.854 13.854 3.558 0 6.796-1.36 9.252-3.571l10.65 10.65a.727.727 0 0 0 1.03 0 .729.729 0 0 0 0-1.032ZM13.854 26.25c-6.834 0-12.396-5.56-12.396-12.396 0-6.835 5.562-12.396 12.396-12.396 6.835 0 12.396 5.56 12.396 12.396 0 6.835-5.561 12.396-12.396 12.396Z" fill="#3E3B3B"/></g><defs><clipPath id="clip0_1_52"><path fill="#fff" d="M0 0h35v35H0z"/></clipPath></defs></svg>