<svg width="45" height="45" fill="none" xmlns="http://www.w3.org/2000/svg"><g clip-path="url('#clip0_1_1193')"><path d="M44.221 7.012a3.369 3.369 0 0 0-2.61-1.224h-26.11a.97.97 0 0 0 0 1.937h26.11c.442 0 .839.185 1.115.52.281.341.393.79.309 1.228l-3.872 19.36c-.15.693-.737 1.176-1.427 1.176H16.2L7.31 3.239A3.444 3.444 0 0 0 4.037.944h-.001C2.772.988 1.49.987 1.176.966a.967.967 0 0 0-.892 1.631c.3.3.4.402 3.785.284.635 0 1.202.401 1.406.984l9.107 27.418a.969.969 0 0 0 .92.663h22.234c1.61 0 2.974-1.11 3.324-2.716l3.876-19.382a3.42 3.42 0 0 0-.715-2.836Z" fill="#3E3B3B"/><path d="M37.3 37.275H19.667c-.596 0-1.157-.41-1.359-.987l-1.889-5.62a.968.968 0 1 0-1.836.618l1.893 5.63c.48 1.374 1.763 2.296 3.191 2.296H37.3a.969.969 0 1 0 0-1.937Z" fill="#3E3B3B"/><path d="M20.345 37.275a3.395 3.395 0 0 0-3.39 3.39c0 1.87 1.52 3.392 3.39 3.392s3.391-1.522 3.391-3.391c0-1.87-1.52-3.391-3.39-3.391Zm0 4.844a1.455 1.455 0 0 1-1.453-1.453c0-.802.652-1.454 1.453-1.454.802 0 1.454.652 1.454 1.454 0 .8-.652 1.453-1.454 1.453ZM37.3 37.275a3.395 3.395 0 0 0-3.39 3.39c0 1.87 1.52 3.392 3.39 3.392s3.39-1.522 3.39-3.391c0-1.87-1.52-3.391-3.39-3.391Zm0 4.844a1.455 1.455 0 0 1-1.453-1.453c0-.802.652-1.454 1.453-1.454s1.453.652 1.453 1.454c0 .8-.652 1.453-1.453 1.453Z" fill="#3E3B3B"/><g clip-path="url('#clip1_1_1193')"><path d="M37.985 12.366a.684.684 0 0 0-.424-.633l-9.658-3.967a.684.684 0 0 0-.52 0l-9.659 3.967a.684.684 0 0 0-.424.633V24.92c0 .277.168.527.424.632l9.659 3.968c.165.068.35.07.519 0l9.66-3.968a.684.684 0 0 0 .423-.632V12.366Zm-10.342 3.286-3.559-1.462 7.69-3.355 3.798 1.56-7.93 3.257Zm-8.975-2.208 3.07 1.261v3.559a.684.684 0 0 0 1.368 0v-2.997l3.853 1.583v11.017l-8.29-3.405V13.444Zm8.975-4.307 2.37.974-7.69 3.355-2.61-1.071 7.93-3.258Zm.684 7.713 8.29-3.406v11.018l-8.29 3.405V16.85Z" fill="#3E3B3B"/></g></g><defs><clipPath id="clip0_1_1193"><path fill="#fff" d="M0 0h45v45H0z"/></clipPath><clipPath id="clip1_1_1193"><path fill="#fff" transform="translate(16.714 7.714)" d="M0 0h21.857v21.857H0z"/></clipPath></defs></svg>