<svg width="37" height="35" fill="none" xmlns="http://www.w3.org/2000/svg"><path d="M4.926 30.558c.265.137 6.57 3.348 13.574 3.348 7.588 0 13.353-3.222 13.594-3.36a.562.562 0 0 0 .206-.199.525.525 0 0 0 .075-.269c0-4.415-1.431-8.456-4.03-11.378-1.818-2.044-4.1-3.437-6.615-4.078 1.54-.694 2.785-1.862 3.53-3.313a6.763 6.763 0 0 0 .571-4.673c-.376-1.574-1.306-2.98-2.638-3.987A7.79 7.79 0 0 0 18.5 1.093a7.79 7.79 0 0 0-4.693 1.556c-1.332 1.007-2.262 2.413-2.638 3.987a6.763 6.763 0 0 0 .571 4.673c.745 1.451 1.99 2.62 3.53 3.313-2.515.641-4.797 2.034-6.615 4.078-2.599 2.922-4.03 6.963-4.03 11.378 0 .098.028.195.081.28.053.084.13.153.22.2Zm7.215-22.355c0-1.19.373-2.353 1.071-3.342a6.296 6.296 0 0 1 2.854-2.216 6.698 6.698 0 0 1 3.675-.342 6.48 6.48 0 0 1 3.256 1.646 5.923 5.923 0 0 1 1.74 3.08 5.714 5.714 0 0 1-.362 3.476 6.1 6.1 0 0 1-2.342 2.7 6.62 6.62 0 0 1-3.533 1.014c-1.686-.002-3.302-.637-4.495-1.764-1.192-1.128-1.863-2.657-1.864-4.252ZM9.54 19.404c2.348-2.638 5.53-4.092 8.96-4.092 3.43 0 6.612 1.454 8.96 4.092 2.362 2.655 3.69 6.322 3.756 10.355-1.237.633-6.378 3.053-12.716 3.053-5.861 0-11.382-2.434-12.716-3.066.07-4.028 1.397-7.69 3.756-10.342Z" fill="#3E3B3B"/></svg>