<svg width="37" height="35" viewBox="0 0 37 35" fill="none" xmlns="http://www.w3.org/2000/svg">
<path d="M4.92628 30.5581C5.1912 30.6948 11.4957 33.9061 18.5 33.9061C26.0885 33.9061 31.8527 30.6841 32.0943 30.5469C32.1799 30.4984 32.2508 30.4296 32.3 30.3474C32.3491 30.2653 32.375 30.1724 32.375 30.078C32.375 25.6625 30.9436 21.6219 28.3447 18.7001C26.5266 16.6562 24.2455 15.263 21.7296 14.6217C23.2696 13.9284 24.5146 12.7602 25.26 11.309C26.0053 9.85781 26.2067 8.20997 25.831 6.6362C25.4554 5.06243 24.525 3.65634 23.1927 2.64894C21.8605 1.64155 20.2056 1.09277 18.5 1.09277C16.7944 1.09277 15.1395 1.64155 13.8073 2.64894C12.475 3.65634 11.5446 5.06243 11.169 6.6362C10.7933 8.20997 10.9947 9.85781 11.74 11.309C12.4854 12.7602 13.7304 13.9284 15.2704 14.6217C12.7545 15.263 10.4734 16.6564 8.65533 18.7001C6.05637 21.6219 4.625 25.6625 4.625 30.078C4.625 30.1762 4.65298 30.2727 4.70599 30.3572C4.75901 30.4416 4.8351 30.511 4.92628 30.5581ZM12.1406 8.203C12.1406 7.01322 12.5136 5.85016 13.2124 4.8609C13.9111 3.87164 14.9043 3.1006 16.0664 2.64529C17.2284 2.18998 18.5071 2.07085 19.7407 2.30297C20.9742 2.53508 22.1074 3.10801 22.9968 3.94931C23.8861 4.79061 24.4918 5.8625 24.7372 7.02941C24.9826 8.19633 24.8566 9.40587 24.3753 10.5051C23.894 11.6043 23.0789 12.5438 22.0331 13.2048C20.9873 13.8658 19.7578 14.2186 18.5 14.2186C16.814 14.2168 15.1976 13.5824 14.0054 12.4547C12.8132 11.3269 12.1425 9.79789 12.1406 8.203ZM9.54 19.4043C11.8877 16.7656 15.0694 15.3124 18.5 15.3124C21.9306 15.3124 25.1123 16.7656 27.46 19.4043C29.8217 22.0592 31.1496 25.7262 31.2161 29.759C29.979 30.3925 24.8383 32.8124 18.5 32.8124C12.6385 32.8124 7.11816 30.3782 5.78414 29.746C5.85352 25.7182 7.18082 22.0564 9.54 19.4043Z" fill="#3E3B3B"></path>
</svg>
