<svg width="26" height="26" viewBox="0 0 26 26" fill="none" xmlns="http://www.w3.org/2000/svg">
<circle cx="13" cy="13" r="13" fill="#3E3B3B"/>
<path d="M13.5 5C10.5045 5 8.06754 7.43697 8.06754 10.4324C8.06754 14.1498 12.929 19.6072 13.136 19.8377C13.3304 20.0543 13.6699 20.0539 13.8639 19.8377C14.0709 19.6072 18.9324 14.1498 18.9324 10.4324C18.9323 7.43697 16.4954 5 13.5 5ZM13.5 18.7616C11.8638 16.8181 9.04582 12.9837 9.04582 10.4325C9.04582 7.97639 11.0439 5.97828 13.5 5.97828C15.956 5.97828 17.9541 7.97639 17.9541 10.4324C17.9541 12.9838 15.1365 16.8175 13.5 18.7616Z" fill="#FFBE2E"/>
<path d="M13.5 7.69922C11.993 7.69922 10.7669 8.92532 10.7669 10.4324C10.7669 11.9395 11.993 13.1656 13.5 13.1656C15.0071 13.1656 16.2332 11.9395 16.2332 10.4324C16.2332 8.92532 15.0071 7.69922 13.5 7.69922ZM13.5 12.1873C12.5324 12.1873 11.7452 11.4001 11.7452 10.4324C11.7452 9.46474 12.5324 8.6775 13.5 8.6775C14.4677 8.6775 15.2549 9.46474 15.2549 10.4324C15.2549 11.4001 14.4677 12.1873 13.5 12.1873Z" fill="#FFBE2E"/>
</svg>
