<svg width="26" height="26" viewBox="0 0 26 26" fill="none" xmlns="http://www.w3.org/2000/svg">
<circle cx="13" cy="13" r="13" fill="#3E3B3B"/>
<g clip-path="url(#clip0_1_1138)">
<path d="M15.7809 21C15.2967 21 14.8166 20.9144 14.3471 20.7438C12.2789 19.9925 10.3591 18.7688 8.79535 17.2051C7.23154 15.6413 6.00786 13.7215 5.25658 11.6533C5.01515 10.9886 4.9439 10.3025 5.04489 9.61397C5.13948 8.969 5.38931 8.34286 5.7674 7.80324C6.14716 7.26124 6.65345 6.81044 7.23151 6.49958C7.84795 6.1681 8.52079 6 9.23138 6C9.45239 6 9.6434 6.15442 9.68971 6.3705L10.4254 9.80393C10.4588 9.9594 10.411 10.1212 10.2986 10.2336L9.0414 11.4907C10.2273 13.8486 12.1517 15.773 14.5096 16.959L15.7667 15.7018C15.8792 15.5894 16.041 15.5417 16.1964 15.5749L19.6299 16.3106C19.846 16.357 20.0004 16.548 20.0004 16.769C20.0004 17.4796 19.8323 18.1524 19.5007 18.7689C19.1899 19.3469 18.7391 19.8532 18.1971 20.233C17.6575 20.6111 17.0314 20.8609 16.3864 20.9555C16.1842 20.9852 15.9822 21 15.7809 21ZM8.85687 6.95797C7.91955 7.06144 7.08761 7.55273 6.53516 8.34122C5.91391 9.22786 5.76904 10.3184 6.1377 11.3332C7.5821 15.3094 10.691 18.4183 14.6672 19.8627C15.682 20.2314 16.7725 20.0865 17.6592 19.4653C18.4477 18.9128 18.939 18.0809 19.0424 17.1435L16.2494 16.545L14.9365 17.858C14.7967 17.9977 14.5845 18.0348 14.4057 17.9508C11.617 16.6407 9.35976 14.3834 8.04965 11.5947C7.96566 11.4159 8.00275 11.2036 8.14246 11.064L9.45538 9.75105L8.85687 6.95797Z" fill="#FFBE2E"/>
</g>
<defs>
<clipPath id="clip0_1_1138">
<rect width="15" height="15" fill="white" transform="translate(5 6)"/>
</clipPath>
</defs>
</svg>
