<svg width="26" height="26" viewBox="0 0 26 26" fill="none" xmlns="http://www.w3.org/2000/svg">
<circle cx="13" cy="13" r="13" fill="#3E3B3B"/>
<path d="M13 20C11.1302 20 9.37239 19.2719 8.05023 17.9498C6.72814 16.6276 6 14.8698 6 13C6 11.1302 6.72814 9.37239 8.05023 8.05023C9.37239 6.72814 11.1302 6 13 6C14.8698 6 16.6276 6.72814 17.9498 8.05023C19.2719 9.37239 20 11.1302 20 13C20 14.8698 19.2719 16.6276 17.9498 17.9498C16.6276 19.2719 14.8698 20 13 20V20ZM13 6.82031C11.3493 6.82031 9.7975 7.46311 8.6303 8.6303C7.46311 9.7975 6.82031 11.3493 6.82031 13C6.82031 14.6507 7.46311 16.2025 8.6303 17.3697C9.7975 18.5369 11.3493 19.1797 13 19.1797C14.6507 19.1797 16.2025 18.5369 17.3697 17.3697C18.5369 16.2025 19.1797 14.6507 19.1797 13C19.1797 11.3493 18.5369 9.7975 17.3697 8.6303C16.2025 7.46311 14.6507 6.82031 13 6.82031V6.82031Z" fill="#FFBE2E"/>
<path d="M12.5897 7.6416H13.41V8.73623H12.5897V7.6416Z" fill="#FFBE2E"/>
<path d="M15.7248 9.6958L16.4987 8.9219L17.0786 9.50186L16.3047 10.2758L15.7248 9.6958Z" fill="#FFBE2E"/>
<path d="M17.2624 12.5898H18.357V13.4102H17.2624V12.5898Z" fill="#FFBE2E"/>
<path d="M15.7223 16.3049L16.3023 15.725L17.0762 16.4989L16.4962 17.0788L15.7223 16.3049Z" fill="#FFBE2E"/>
<path d="M12.5897 17.2637H13.41V18.3583H12.5897V17.2637Z" fill="#FFBE2E"/>
<path d="M8.91846 16.4983L9.69236 15.7244L10.2723 16.3044L9.49842 17.0783L8.91846 16.4983Z" fill="#FFBE2E"/>
<path d="M7.6424 12.5898H8.73702V13.4102H7.6424V12.5898Z" fill="#FFBE2E"/>
<path d="M8.92093 9.50098L9.50089 8.92102L10.2748 9.69492L9.69483 10.2749L8.92093 9.50098Z" fill="#FFBE2E"/>
<path d="M15.8954 13.4101H12.5897V10.1045H13.41V12.5898H15.8954V13.4101Z" fill="#FFBE2E"/>
</svg>
