<svg width="291" height="227" viewBox="0 0 291 227" fill="none" xmlns="http://www.w3.org/2000/svg">
<path d="M86.3429 105.937C84.4789 104.836 82.6382 103.415 81.0026 101.848C80.4575 101.325 79.4318 102.055 79.977 102.577C82.1577 104.667 85.2884 109.721 89.2038 109.363C89.9775 109.42 90.0477 108.46 89.6842 108.111C88.7756 107.241 87.4567 106.662 86.3429 105.937Z" fill="black"/>
<path d="M104.909 104.154C101.944 106.88 99.5793 109.486 94.9753 110.295C94.3737 110.414 94.5346 110.916 95.1362 110.797C100.294 110.519 104.761 108.883 106.643 104.771C107.107 103.824 105.35 103.532 104.909 104.154Z" fill="black"/>
<path d="M111.57 83.4056C109.125 87.2858 108.724 92.7758 108.6 97.1498C108.736 97.9714 109.908 98.0568 110.163 97.2637C110.535 94.8558 111.115 92.3007 111.878 89.9214C112.411 88.0122 113.334 86.1315 113.476 84.1938C113.363 83.0493 112.008 82.7882 111.57 83.4056Z" fill="black"/>
<path d="M123.592 63.7178C119.657 66.2081 117.198 70.1131 114.972 73.5449C114.532 74.1662 115.478 74.7254 116.104 74.2808C118.723 70.8777 121.895 68.0051 125.253 65.3093C126.11 64.3916 124.633 62.9769 123.592 63.7178Z" fill="black"/>
<path d="M143.624 59.4443C141.492 59.127 138.948 59.1035 136.792 59.1083C135.027 59.1416 134.886 61.0744 136.627 61.3632C138.576 61.505 140.707 61.8225 142.839 62.1398C144.971 62.4568 147.651 63.3001 150.013 63.1484C150.999 63.0583 151.276 61.9451 150.337 61.3909C148.873 59.9888 145.962 59.6147 143.624 59.4443Z" fill="black"/>
<path d="M157.307 65.9589C156.58 65.2621 155.144 66.2836 155.871 66.9804C157.484 68.8682 158.71 70.7279 160.117 72.762C161.343 74.6216 161.953 76.9191 163.772 78.6611C164.681 79.532 166.481 78.8587 165.983 77.6955C164.739 73.4206 160.785 68.9483 157.307 65.9589Z" fill="black"/>
<path d="M183.466 86.1292C181.292 86.4558 179.507 86.8104 177.381 86.4938C174.889 85.8275 172.285 84.0219 170.642 82.4479C170.093 81.923 169.063 82.6557 169.611 83.1807C172.668 86.7966 179.52 91.9814 184.697 87.9966C185.339 87.2355 184.656 85.8931 183.466 86.1292Z" fill="black"/>
<path d="M193.251 85.6881C196.221 85.1556 198.926 83.9551 201.807 83.1999C205.564 82.4608 209.325 82.4592 212.917 83.4854C213.529 83.5704 213.525 82.8337 213.175 82.68C206.253 80.559 197.413 79.4328 191.577 83.6677C190.534 84.6789 191.941 86.0314 193.251 85.6881Z" fill="black"/>
<path d="M239.89 82.5717C237.661 82.5829 235.419 83.1004 232.816 83.1979C230.587 83.2092 228.371 82.714 226.285 82.0217C224.932 81.6628 224.029 83.0452 225.253 83.6017C229.527 85.8016 235.929 87.1753 240.57 84.9304C242.195 84.3881 241.372 82.7326 239.89 82.5717Z" fill="black"/>
<path d="M264.535 78.914C262.808 78.2997 260.411 78.7761 258.612 79.1334C256.607 79.6383 254.761 80.6435 253.1 81.8246C252.061 82.5628 253.349 83.7959 254.388 83.0577C255.841 82.0242 257.456 81.491 259.254 81.1338C260.845 80.9239 262.595 81.2143 264.185 81.0046C265.568 80.9423 265.686 79.3237 264.535 78.914Z" fill="black"/>
<path d="M287.546 76.8088C280.449 74.8356 273.837 71.6034 266.97 69.1616C263.72 68.1158 262.246 72.2146 265.29 73.4071C270.805 75.5884 276.297 78.092 282.249 79.6583C280.574 81.154 278.899 82.6496 277.018 84.2921C276.375 85.0541 274.93 86.0812 275.042 87.2221L275.019 87.5434C275.019 87.5434 274.812 87.6901 274.995 87.8652C274.948 88.5089 276.092 88.9159 276.505 88.6224C276.895 88.6508 277.101 88.5038 277.514 88.2106C278.729 87.6515 279.578 86.7433 280.817 85.8629C283.318 83.7803 285.612 81.8442 288.478 80.112C289.899 79.407 289.262 77.4192 287.546 76.8088Z" fill="black"/>
<path d="M75.8041 102.267C73.6632 102.522 71.3831 102.972 69.3441 103.542C67.305 104.111 64.7468 104.95 63.7734 106.312C63.2171 107.09 64.1437 108.077 65.0428 107.732C66.9428 107.357 68.2963 105.921 70.0944 105.232C72.0316 104.348 73.9316 103.973 76.2117 103.523C77.1107 103.179 76.5642 102.117 75.8041 102.267Z" fill="black"/>
<path d="M57.1852 124.691C54.8589 127.814 53.0979 130.731 48.7489 132.205C48.1837 132.411 48.4499 132.883 49.0152 132.676C54.0228 131.644 58.0588 129.374 59.0211 125.044C59.2733 124.042 57.4842 124.013 57.1852 124.691Z" fill="black"/>
<path d="M39.7162 134.382C37.5599 134.957 35.1068 135.307 32.6317 135.418C31.8066 135.456 31.9162 136.646 32.7413 136.608C36.0414 136.46 42.7731 137.591 44.7102 134.635C45.2164 134.134 44.3256 133.457 43.7756 133.482C42.4005 133.544 41.0693 134.082 39.7162 134.382Z" fill="black"/>
<path d="M59.786 120.332C59.3594 116.663 58.6248 113.436 61.0785 110.132C61.3864 109.691 60.8179 109.436 60.51 109.877C57.1893 113.14 55.5836 116.94 58.0238 120.932C58.5639 121.87 60.0467 121.028 59.786 120.332Z" fill="black"/>
<path d="M25.8028 137.879C23.6618 138.134 21.3818 138.584 19.3427 139.154C17.3036 139.723 14.7455 140.563 13.772 141.924C13.2158 142.702 14.1424 143.689 15.0414 143.345C16.9415 142.97 18.2949 141.533 20.0931 140.844C22.0303 139.96 23.9303 139.585 26.2103 139.135C27.1094 138.791 26.5628 137.729 25.8028 137.879Z" fill="black"/>
<path d="M9.39206 145.775C8.34144 147.16 6.44744 148.086 5.7616 149.594C5.09913 150.588 5.78198 151.862 7.12732 152.141C8.35885 152.209 9.38611 151.338 10.2762 150.768C10.9153 150.288 10.9387 149.774 10.5973 149.137C11.1226 148.445 11.6479 147.753 11.8084 146.937C12.3571 145.731 10.1917 144.479 9.39206 145.775Z" fill="black"/>
</svg>
